<?xml version="1.0" encoding="UTF-8" standalone="no"?>
<!-- Created with Inkscape (http://www.inkscape.org/) -->

<svg
   version="1.1"
   id="svg2"
   width="421.13333"
   height="139.73334"
   viewBox="0 0 421.13333 139.73334"
   sodipodi:docname="logo.eps"
   xmlns:inkscape="http://www.inkscape.org/namespaces/inkscape"
   xmlns:sodipodi="http://sodipodi.sourceforge.net/DTD/sodipodi-0.dtd"
   xmlns="http://www.w3.org/2000/svg"
   xmlns:svg="http://www.w3.org/2000/svg">
  <defs
     id="defs6" />
  <sodipodi:namedview
     id="namedview4"
     pagecolor="#ffffff"
     bordercolor="#000000"
     borderopacity="0.25"
     inkscape:showpageshadow="2"
     inkscape:pageopacity="0.0"
     inkscape:pagecheckerboard="0"
     inkscape:deskcolor="#d1d1d1" />
  <g
     id="g8"
     inkscape:groupmode="layer"
     inkscape:label="ink_ext_XXXXXX"
     transform="matrix(1.3333333,0,0,-1.3333333,0,139.73333)">
    <g
       id="g10"
       transform="scale(0.1)">
      <path
         d="m 1347.07,473.742 v 4.531 h 43.08 v -4.531 h -18.82 v -86.621 c 0,-29.023 -1.36,-36.277 -8.16,-46.25 -7.03,-10.43 -20.41,-16.101 -37.64,-16.101 -17.46,0 -33.33,5.437 -42.4,14.285 -9.53,9.297 -11.57,18.136 -11.57,48.066 v 86.621 h -18.81 v 4.531 h 62.12 v -4.531 h -19.04 v -86.621 c 0,-31.973 0.45,-35.82 6.35,-44.211 5.44,-8.164 16.09,-12.926 28.56,-12.926 14.74,0 25.4,6.344 30.84,18.368 3.86,8.613 4.53,13.828 4.53,38.769 v 86.621 h -19.04"
         style="fill:#d52745;fill-opacity:1;fill-rule:nonzero;stroke:none"
         id="path12" />
      <path
         d="m 1425.58,411.613 h -15.19 v 4.532 h 35.6 v -11.786 c 7.48,9.746 16.33,14.051 28.34,14.051 9.29,0 18.37,-3.398 23.36,-8.84 4.99,-5.672 6.34,-10.886 6.34,-27.664 V 331.574 H 1519 v -4.543 h -48.98 v 4.543 h 13.6 v 34.91 c 0,26.985 -0.9,35.149 -4.3,39.692 -2.49,3.394 -6.57,5.437 -11.12,5.437 -5.88,0 -12.92,-3.633 -16.55,-9.07 -4.53,-6.352 -5.66,-16.098 -5.66,-43.984 v -26.985 h 13.6 v -4.543 h -49.2 v 4.543 h 15.19 v 80.039"
         style="fill:#d52745;fill-opacity:1;fill-rule:nonzero;stroke:none"
         id="path14" />
      <path
         d="m 1584.89,462.402 c 0,-7.254 -5.66,-12.925 -12.69,-12.925 -7.26,0 -12.47,5.671 -12.47,13.152 0,7.258 5.21,12.695 12.47,12.695 7.03,0 12.69,-5.664 12.69,-12.922 z m -21.99,-50.789 h -15.18 v 4.532 h 35.59 v -84.571 h 14.96 v -4.543 h -50.55 v 4.543 h 15.18 v 80.039"
         style="fill:#d52745;fill-opacity:1;fill-rule:nonzero;stroke:none"
         id="path16" />
      <path
         d="m 1667.85,324.77 h -7.94 l -34.68,86.843 h -9.53 v 4.532 h 48.07 v -4.532 h -16.33 l 23.81,-60.996 23.36,60.996 h -17.24 v 4.532 h 32.43 v -4.532 h -9.07 l -32.88,-86.843"
         style="fill:#d52745;fill-opacity:1;fill-rule:nonzero;stroke:none"
         id="path18" />
      <path
         d="m 1787.38,383.496 c 0,14.965 -0.22,16.777 -1.8,20.863 -2.04,5.664 -7.49,8.836 -14.51,8.836 -7.49,0 -13.62,-2.937 -16.33,-8.152 -2.5,-4.543 -2.5,-4.543 -2.5,-21.547 z m -35.14,-4.539 v -6.57 c 0,-22.453 0.46,-27.207 2.95,-31.977 3.4,-6.797 9.98,-10.426 18.59,-10.426 14.51,0 25.85,9.981 30.16,26.981 h 5.45 c -3.64,-19.043 -18.83,-32.195 -36.97,-32.195 -23.12,0 -43.76,21.992 -43.76,46.929 0,24.946 19.95,46.711 42.63,46.711 14.05,0 26.52,-6.797 33.78,-18.359 3.86,-6.121 5.45,-11.563 5.9,-21.094 h -58.73"
         style="fill:#d52745;fill-opacity:1;fill-rule:nonzero;stroke:none"
         id="path20" />
      <path
         d="m 1851.74,411.613 h -15.19 v 4.532 h 35.6 v -21.543 c 6.12,16.101 14.05,23.808 24.49,23.808 8.39,0 14.28,-5.437 14.28,-13.144 0,-6.582 -4.76,-11.563 -11.1,-11.563 -5.9,0 -9.76,4.082 -10.21,10.656 -0.22,4.082 -0.46,4.754 -2.27,4.754 -1.59,0 -4.08,-2.265 -6.12,-5.664 -6.8,-11.562 -9.07,-24.492 -9.07,-50.793 v -21.082 h 14.96 v -4.543 h -50.56 v 4.543 h 15.19 v 80.039"
         style="fill:#d52745;fill-opacity:1;fill-rule:nonzero;stroke:none"
         id="path22" />
      <path
         d="m 1959.55,331.574 h 17.92 c 20.86,0 24.48,3.848 31.74,33.328 h 2.95 l -0.45,-37.871 h -78.01 l 54.65,84.582 h -12.01 c -19.5,0.45 -23.81,-3.633 -31.3,-30.156 h -2.95 v 34.688 h 73.02 l -55.56,-84.571"
         style="fill:#d52745;fill-opacity:1;fill-rule:nonzero;stroke:none"
         id="path24" />
      <path
         d="m 2081.2,462.402 c 0,-7.254 -5.66,-12.925 -12.69,-12.925 -7.26,0 -12.47,5.671 -12.47,13.152 0,7.258 5.21,12.695 12.47,12.695 7.03,0 12.69,-5.664 12.69,-12.922 z m -21.99,-50.789 h -15.19 v 4.532 h 35.6 v -84.571 h 14.96 v -4.543 h -50.56 v 4.543 h 15.19 v 80.039"
         style="fill:#d52745;fill-opacity:1;fill-rule:nonzero;stroke:none"
         id="path26" />
      <path
         d="m 2148.91,416.145 h 22.67 v -4.532 h -22.67 v -64.394 c 0,-6.582 0.22,-8.848 1.81,-11.114 1.59,-2.722 4.76,-4.304 8.62,-4.304 6.8,0 10.65,3.855 12.24,12.246 h 4.77 c -2.28,-12.707 -10.44,-19.277 -24.04,-19.277 -8.39,0 -15.19,2.722 -19.5,8.164 -3.85,4.761 -4.31,7.031 -4.31,21.082 v 57.597 h -13.83 v 3.172 c 14.96,8.164 25.17,20.18 30.61,36.059 h 3.63 v -34.699"
         style="fill:#d52745;fill-opacity:1;fill-rule:nonzero;stroke:none"
         id="path28" />
      <path
         d="m 2256.9,372.387 c -12.03,-0.449 -17.69,-1.821 -23.14,-5.215 -6.8,-4.082 -10.19,-9.746 -10.19,-17.238 0,-9.524 4.98,-15.188 13.6,-15.188 6.8,0 12.47,3.625 16.09,10.207 2.5,4.309 3.64,11.106 3.64,22.902 z m 34.68,-40.813 c -5.21,-4.988 -9.74,-6.804 -15.64,-6.804 -11.11,0 -17.69,6.121 -19.04,17.683 -6.59,-11.34 -17.24,-17.683 -29.49,-17.683 -14.27,0 -24.03,8.613 -24.03,21.082 0,11.113 7.26,19.961 20.63,25.402 8.39,3.172 17.69,4.766 32.89,4.988 v 15.645 c 0,12.922 -0.46,15.183 -2.95,18.136 -2.27,2.723 -7.26,4.54 -12.25,4.54 -8.16,0 -17.24,-4.993 -17.24,-9.52 0,-0.91 0.24,-1.367 1.15,-2.5 2.49,-2.727 3.17,-4.531 3.17,-7.031 0,-5.664 -4.08,-9.746 -9.3,-9.746 -5.67,0 -9.75,4.082 -9.75,9.976 0,12.016 16.77,22.668 35.6,22.668 11.11,0 21.31,-3.625 26.75,-9.519 4.99,-5.215 5.22,-6.348 5.22,-26.301 v -24.942 c 0,-21.543 0,-21.543 0.9,-23.582 0.69,-2.043 1.6,-2.726 3.86,-2.726 2.27,0 2.73,0.234 6.81,3.633 l 2.71,-3.399"
         style="fill:#d52745;fill-opacity:1;fill-rule:nonzero;stroke:none"
         id="path30" />
      <path
         d="m 2521.49,331.574 h 10.88 v -4.543 h -59.63 v 4.543 h 19.5 l -55.32,74.367 60.76,67.801 h -22.22 v 4.531 h 48.3 v -4.531 h -19.05 l -48.29,-54.426 z m -111.11,142.168 h -18.82 v 4.531 h 61.91 v -4.531 h -18.82 V 331.574 h 18.82 v -4.543 h -61.91 v 4.543 h 18.82 v 142.168"
         style="fill:#d52745;fill-opacity:1;fill-rule:nonzero;stroke:none"
         id="path32" />
      <path
         d="m 2613.11,372.387 c -12.03,-0.449 -17.69,-1.821 -23.14,-5.215 -6.8,-4.082 -10.19,-9.746 -10.19,-17.238 0,-9.524 4.98,-15.188 13.6,-15.188 6.8,0 12.47,3.625 16.09,10.207 2.5,4.309 3.64,11.106 3.64,22.902 z m 34.68,-40.813 c -5.21,-4.988 -9.74,-6.804 -15.64,-6.804 -11.11,0 -17.69,6.121 -19.04,17.683 -6.59,-11.34 -17.24,-17.683 -29.49,-17.683 -14.27,0 -24.03,8.613 -24.03,21.082 0,11.113 7.26,19.961 20.64,25.402 8.38,3.172 17.68,4.766 32.88,4.988 v 15.645 c 0,12.922 -0.46,15.183 -2.95,18.136 -2.27,2.723 -7.26,4.54 -12.25,4.54 -8.16,0 -17.24,-4.993 -17.24,-9.52 0,-0.91 0.24,-1.367 1.15,-2.5 2.49,-2.727 3.17,-4.531 3.17,-7.031 0,-5.664 -4.08,-9.746 -9.3,-9.746 -5.67,0 -9.75,4.082 -9.75,9.976 0,12.016 16.78,22.668 35.6,22.668 11.11,0 21.31,-3.625 26.75,-9.519 4.99,-5.215 5.22,-6.348 5.22,-26.301 v -24.942 c 0,-21.543 0,-21.543 0.9,-23.582 0.69,-2.043 1.6,-2.726 3.86,-2.726 2.27,0 2.73,0.234 6.81,3.633 l 2.71,-3.399"
         style="fill:#d52745;fill-opacity:1;fill-rule:nonzero;stroke:none"
         id="path34" />
      <path
         d="m 2691.7,411.613 h -15.19 v 4.532 h 35.6 v -21.543 c 6.12,16.101 14.05,23.808 24.49,23.808 8.39,0 14.28,-5.437 14.28,-13.144 0,-6.582 -4.76,-11.563 -11.1,-11.563 -5.9,0 -9.76,4.082 -10.21,10.656 -0.22,4.082 -0.46,4.754 -2.26,4.754 -1.6,0 -4.09,-2.265 -6.13,-5.664 -6.8,-11.562 -9.07,-24.492 -9.07,-50.793 v -21.082 h 14.96 v -4.543 h -50.56 v 4.543 h 15.19 v 80.039"
         style="fill:#d52745;fill-opacity:1;fill-rule:nonzero;stroke:none"
         id="path36" />
      <path
         d="m 2785.04,473.742 h -15.19 v 4.531 h 35.6 V 331.574 h 14.97 v -4.543 h -50.57 v 4.543 h 15.19 v 142.168"
         style="fill:#d52745;fill-opacity:1;fill-rule:nonzero;stroke:none"
         id="path38" />
      <path
         d="m 2871.4,403.676 c -2.27,-4.531 -2.49,-7.707 -2.49,-31.977 0,-26.297 0.22,-28.789 3.63,-33.777 3.62,-5.438 9.3,-7.938 18.13,-7.938 9.3,0 15.65,3.172 19.05,9.754 2.27,4.309 2.5,7.703 2.5,31.516 0,26.531 -0.23,29.246 -3.64,34.012 -3.62,5.437 -9.29,7.929 -18.35,7.929 -9.08,0 -15.42,-3.172 -18.83,-9.519 z m 65.08,-32.649 c 0,-25.398 -20.86,-46.257 -45.81,-46.257 -25.62,0 -46.02,20.859 -46.02,46.929 0,25.625 20.63,46.711 45.8,46.711 25.85,0 46.03,-20.859 46.03,-47.383"
         style="fill:#d52745;fill-opacity:1;fill-rule:nonzero;stroke:none"
         id="path40" />
      <path
         d="m 3007.48,324.77 h -7.94 l -34.69,86.843 h -9.52 v 4.532 h 48.07 v -4.532 h -16.33 l 23.81,-60.996 23.36,60.996 H 3017 v 4.532 h 32.42 v -4.532 h -9.06 l -32.88,-86.843"
         style="fill:#d52745;fill-opacity:1;fill-rule:nonzero;stroke:none"
         id="path42" />
      <path
         d="m 3123.86,372.387 c -12.02,-0.449 -17.69,-1.821 -23.14,-5.215 -6.79,-4.082 -10.19,-9.746 -10.19,-17.238 0,-9.524 4.98,-15.188 13.6,-15.188 6.8,0 12.47,3.625 16.1,10.207 2.5,4.309 3.63,11.106 3.63,22.902 z m 34.69,-40.813 c -5.22,-4.988 -9.75,-6.804 -15.65,-6.804 -11.11,0 -17.68,6.121 -19.04,17.683 -6.58,-11.34 -17.24,-17.683 -29.48,-17.683 -14.29,0 -24.04,8.613 -24.04,21.082 0,11.113 7.26,19.961 20.64,25.402 8.39,3.172 17.68,4.766 32.88,4.988 v 15.645 c 0,12.922 -0.46,15.183 -2.95,18.136 -2.27,2.723 -7.26,4.54 -12.25,4.54 -8.16,0 -17.23,-4.993 -17.23,-9.52 0,-0.91 0.23,-1.367 1.14,-2.5 2.49,-2.727 3.17,-4.531 3.17,-7.031 0,-5.664 -4.08,-9.746 -9.29,-9.746 -5.68,0 -9.76,4.082 -9.76,9.976 0,12.016 16.78,22.668 35.61,22.668 11.1,0 21.3,-3.625 26.74,-9.519 4.99,-5.215 5.22,-6.348 5.22,-26.301 v -24.942 c 0,-21.543 0,-21.543 0.91,-23.582 0.68,-2.043 1.59,-2.726 3.85,-2.726 2.27,0 2.73,0.234 6.81,3.633 l 2.72,-3.399"
         style="fill:#d52745;fill-opacity:1;fill-rule:nonzero;stroke:none"
         id="path44" />
      <path
         d="m 1313.68,638.969 c 14.96,0 21.74,1.633 26.42,6.078 5.37,5.375 7.95,14.492 7.95,28.988 0,29.688 -6.32,36.231 -34.84,36.231 h -15.66 v -71.297 z m -41.14,71.297 h -19.4 v 4.675 h 59.84 c 27.82,0 37.87,-2.336 49.33,-11.687 9.11,-7.481 13.78,-17.066 13.78,-28.52 0,-12.855 -6.3,-23.843 -17.76,-31.324 -10.28,-6.777 -21.97,-9.117 -44.88,-9.117 h -15.9 v -70.602 h 19.4 v -4.675 h -63.81 v 4.675 h 19.4 v 146.575"
         style="fill:#171717;fill-opacity:1;fill-rule:nonzero;stroke:none"
         id="path46" />
      <path
         d="m 1456.02,678.707 -21.98,-64.75 h 43.71 z m -23.62,-69.43 -15.19,-45.586 h 20.34 v -4.675 h -37.87 v 4.675 h 11.22 l 52.83,151.25 h 7.01 L 1521,563.691 h 16.6 v -4.675 h -63.35 v 4.675 h 20.33 l -15.42,45.586 h -46.76"
         style="fill:#171717;fill-opacity:1;fill-rule:nonzero;stroke:none"
         id="path48" />
      <path
         d="m 1596.94,710.266 h -19.4 v 4.675 h 112.21 l 1.64,-42.781 h -3.05 c -7.25,31.563 -17.29,39.508 -48.39,38.106 h -18 v -70.125 c 29.22,-0.239 33.67,3.504 34.14,28.98 h 3.03 v -64.285 h -3.03 c -0.94,14.262 -1.41,16.836 -3.75,21.508 -3.27,6.777 -9.35,9.351 -22.91,9.351 h -7.48 v -72.004 h 29.69 c 24.79,-1.636 33.2,7.012 43.25,43.954 h 3.04 l -4.44,-48.629 h -115.95 v 4.675 h 19.4 v 146.575"
         style="fill:#171717;fill-opacity:1;fill-rule:nonzero;stroke:none"
         id="path50" />
      <path
         d="m 1803.32,563.691 c 18.94,0 22.44,0.469 30.63,3.274 10.28,3.508 18.23,11.926 21.03,22.207 3.05,10.289 4.21,25.953 4.21,50.969 0,34.359 -2.57,48.152 -11.22,57.738 -5.14,6.078 -13.32,10.047 -24.31,11.684 -3.97,0.468 -8.88,0.703 -21.74,0.703 h -9.35 V 563.691 Z m -35.76,146.575 h -19.4 v 4.675 h 53.3 c 34.13,0 45.81,-3.039 60.31,-15.425 17.76,-15.2 27.11,-36.473 27.11,-61.481 0,-28.051 -11.46,-52.137 -32.02,-67.094 -13.1,-9.582 -23.62,-11.925 -53.3,-11.925 h -55.4 v 4.675 h 19.4 v 146.575"
         style="fill:#171717;fill-opacity:1;fill-rule:nonzero;stroke:none"
         id="path52" />
      <path
         d="m 1980.48,678.707 -21.97,-64.75 h 43.71 z m -23.61,-69.43 -15.2,-45.586 h 20.34 v -4.675 h -37.87 v 4.675 h 11.22 l 52.83,151.25 h 7.02 l 50.25,-151.25 h 16.6 v -4.675 h -63.35 v 4.675 h 20.33 l -15.42,45.586 h -46.75"
         style="fill:#171717;fill-opacity:1;fill-rule:nonzero;stroke:none"
         id="path54" />
      <path
         d="m 2210.01,668.422 h -3.51 c -3.74,15.894 -8.18,24.777 -16.83,32.726 -7.72,7.247 -16.59,10.754 -27.58,10.754 -12.39,0 -23.14,-5.14 -28.76,-14.023 -5.6,-8.652 -8.42,-28.988 -8.42,-60.781 0,-29.922 1.64,-46.989 5.62,-56.801 4.44,-11.223 15.66,-18.242 28.51,-18.242 12.4,0 22.91,7.476 27.12,19.168 2.1,6.086 3.04,13.332 3.04,27.59 h -23.14 v 4.675 h 65.92 v -4.675 h -14.96 c -0.7,-12.395 -2.57,-19.641 -7.01,-26.653 -9.35,-14.726 -29.69,-25.476 -48.62,-25.476 -36.24,0 -66.16,36.226 -66.16,80.179 0,43.95 30.86,80.414 68.26,80.414 11.22,0 21.97,-3.742 34.36,-11.683 l 7.95,9.347 h 3.04 l 1.17,-46.519"
         style="fill:#171717;fill-opacity:1;fill-rule:nonzero;stroke:none"
         id="path56" />
      <path
         d="m 2315.4,695.539 c -5.37,-9.117 -7.48,-25.476 -7.48,-58.676 0,-35.996 2.34,-51.668 9.12,-61.011 6.31,-8.653 17.06,-13.797 29.22,-13.797 13.1,0 24.79,6.082 30.63,16.367 5.38,9.121 7.48,25.48 7.48,57.508 0,37.168 -2.34,52.832 -8.89,62.183 -6.31,8.649 -17.3,13.789 -29.22,13.789 -13.55,0 -25.01,-6.082 -30.86,-16.363 z m 98.65,-59.609 c 0,-20.336 -8.65,-42.547 -22.67,-58.446 -12.16,-13.324 -28.28,-20.8 -45.12,-20.8 -36.93,0 -68.03,36.929 -68.03,80.414 0,43.246 31.1,80.179 67.8,80.179 37.4,0 68.02,-36.699 68.02,-81.347"
         style="fill:#171717;fill-opacity:1;fill-rule:nonzero;stroke:none"
         id="path58" />
      <path
         d="m 2582.79,668.422 h -3.5 c -3.74,15.894 -8.19,24.777 -16.84,32.726 -7.71,7.247 -16.59,10.754 -27.59,10.754 -12.38,0 -23.13,-5.14 -28.75,-14.023 -5.6,-8.652 -8.41,-28.988 -8.41,-60.781 0,-29.922 1.64,-46.989 5.61,-56.801 4.44,-11.223 15.67,-18.242 28.52,-18.242 12.39,0 22.91,7.476 27.12,19.168 2.11,6.086 3.03,13.332 3.03,27.59 h -23.14 v 4.675 h 65.93 v -4.675 h -14.96 c -0.71,-12.395 -2.58,-19.641 -7.02,-26.653 -9.35,-14.726 -29.68,-25.476 -48.62,-25.476 -36.24,0 -66.16,36.226 -66.16,80.179 0,43.95 30.86,80.414 68.26,80.414 11.22,0 21.97,-3.742 34.37,-11.683 l 7.94,9.347 h 3.04 l 1.17,-46.519"
         style="fill:#171717;fill-opacity:1;fill-rule:nonzero;stroke:none"
         id="path60" />
      <path
         d="m 2668.08,710.266 h -19.41 v 4.675 h 63.82 v -4.675 h -19.4 V 563.691 h 19.4 v -4.675 h -63.82 v 4.675 h 19.41 v 146.575"
         style="fill:#171717;fill-opacity:1;fill-rule:nonzero;stroke:none"
         id="path62" />
      <path
         d="m 2855.53,710.266 v 4.675 h 44.41 v -4.675 h -19.4 v -89.297 c 0,-29.922 -1.4,-37.403 -8.42,-47.696 -7.25,-10.75 -21.04,-16.589 -38.8,-16.589 -18,0 -34.36,5.601 -43.71,14.722 -9.82,9.582 -11.92,18.703 -11.92,49.563 v 89.297 h -19.41 v 4.675 h 64.05 v -4.675 h -19.63 v -89.297 c 0,-32.957 0.46,-36.934 6.54,-45.586 5.61,-8.418 16.6,-13.328 29.45,-13.328 15.2,0 26.18,6.55 31.8,18.933 3.97,8.887 4.68,14.27 4.68,39.981 v 89.297 h -19.64"
         style="fill:#171717;fill-opacity:1;fill-rule:nonzero;stroke:none"
         id="path64" />
      <path
         d="m 2963.72,710.266 h -19.4 v 4.675 h 48.62 l 34.83,-115.011 34.84,115.011 h 47.22 v -4.675 h -19.41 V 563.691 h 19.41 v -4.675 h -63.82 v 4.675 h 19.4 V 706.293 L 3021,559.016 h -5.85 l -46.05,148.91 V 563.691 h 19.41 v -4.675 h -44.19 v 4.675 h 19.4 v 146.575"
         style="fill:#171717;fill-opacity:1;fill-rule:nonzero;stroke:none"
         id="path66" />
      <path
         d="m 499.516,756.445 v -224.09 h 26.039 c 22.718,0 40.269,1.856 52.648,5.571 12.383,3.699 22.531,13.676 30.445,29.922 7.911,16.246 11.872,42.14 11.872,77.703 0,34.785 -3.895,60.176 -11.68,76.168 -7.789,15.988 -17.746,25.765 -29.867,29.355 -12.125,3.578 -29.426,5.371 -51.887,5.371 z m 0,-249.031 V 291.758 h 73.906 V 266.816 H 309.973 v 24.942 h 63.945 v 464.687 h -63.945 v 24.946 h 243.535 c 72.242,0 123.683,-13.563 154.316,-40.676 30.637,-27.121 45.949,-58.84 45.949,-95.164 0,-36.836 -16.98,-69.071 -50.925,-96.699 -33.953,-27.622 -94.075,-41.438 -180.356,-41.438 h -22.976"
         style="fill:#d52745;fill-opacity:1;fill-rule:nonzero;stroke:none"
         id="path68" />
      <path
         d="m 524.008,10.6797 c -189.34,0 -354.945,103.1093 -443.9299,256.0543 h 93.9339 c -53.035,72.028 -84.4261,160.973 -84.4261,257.278 0,96.304 31.3911,185.254 84.4261,257.277 h -93.93 c 88.984,152.945 254.586,256.061 443.926,256.061 189.336,0 354.937,-103.116 443.922,-256.061 h -93.926 c 53.035,-72.023 84.426,-160.973 84.426,-257.277 0,-96.305 -31.391,-185.25 -84.426,-257.278 h 93.93 C 878.945,113.789 713.344,10.6797 524.008,10.6797 Z m 0,1037.3403 C 235.07,1048.02 0,812.949 0,524.008 0,235.066 235.07,0 524.008,0 c 288.937,0 524.012,235.066 524.012,524.008 0,288.941 -235.075,524.012 -524.012,524.012"
         style="fill:#d52745;fill-opacity:1;fill-rule:nonzero;stroke:none"
         id="path70" />
    </g>
  </g>
</svg>
